<svg id="레이어_1" data-name="레이어 1" xmlns="http://www.w3.org/2000/svg" viewBox="0 0 485.11 485.11">
  <defs>
    <style>
      .cls-1 {
        font-size: 33.5px;
        fill: #2c5364;
        font-family: Poppins-Bold, Poppins;
        font-weight: 700;
      }
    </style>
  </defs>
  <text class="cls-1" transform="translate(242.21 28.21) rotate(3.13)">V</text>
  <text class="cls-1" transform="translate(266.03 29.58) rotate(8.98)">e</text>
  <text class="cls-1" transform="translate(285.95 32.83) rotate(13.56)">r</text>
  <text class="cls-1" transform="translate(299.49 36) rotate(17.9)">s</text>
  <text class="cls-1" transform="translate(316.83 41.47) rotate(23.34)">a</text>
  <text class="cls-1" transform="translate(337.21 50.45) rotate(28.1)">t</text>
  <text class="cls-1" transform="translate(348.91 56.75) rotate(31.16)">i</text>
  <text class="cls-1" transform="translate(357.14 61.72) rotate(33.74)">l</text>
  <text class="cls-1" transform="translate(365.15 66.83) rotate(37.7)">e</text>
  <text class="cls-1" transform="matrix(0.75, 0.66, -0.66, 0.75, 381.05, 79.37)"> </text>
  <text class="cls-1" transform="matrix(0.71, 0.7, -0.7, 0.71, 386.25, 83.75)">•</text>
  <text class="cls-1" transform="matrix(0.68, 0.74, -0.74, 0.68, 397.94, 95.37)"> </text>
  <text class="cls-1" transform="matrix(0.62, 0.78, -0.78, 0.62, 402.73, 100.07)">C</text>
  <text class="cls-1" transform="matrix(0.55, 0.84, -0.84, 0.55, 418.04, 119.83)">r</text>
  <text class="cls-1" transform="translate(425.75 131.4) rotate(61.46)">e</text>
  <text class="cls-1" transform="translate(435.41 149) rotate(67.14)">a</text>
  <text class="cls-1" transform="translate(443.91 169.6) rotate(71.91)">t</text>
  <text class="cls-1" transform="translate(447.99 182.22) rotate(74.99)">i</text>
  <text class="cls-1" transform="translate(450.65 191.34) rotate(79.04)">v</text>
  <text class="cls-1" transform="translate(454.38 211.57) rotate(83.07)">i</text>
  <text class="cls-1" transform="translate(455.59 221.05) rotate(86.11)">t</text>
  <text class="cls-1" transform="matrix(-0.02, 1, -1, -0.02, 456.71, 234.13)">y</text>
  <text class="cls-1" transform="translate(456.23 254.97) rotate(94.22)"> </text>
  <text class="cls-1" transform="translate(455.87 261.78) rotate(97.32)">•</text>
  <text class="cls-1" transform="translate(453.64 278.1) rotate(100.44)"> </text>
  <text class="cls-1" transform="matrix(-0.24, 0.97, -0.97, -0.24, 452.65, 284.76)">S</text>
  <text class="cls-1" transform="translate(447.85 304.22) rotate(109.76)">p</text>
  <text class="cls-1" transform="translate(440.39 325.09) rotate(115.73)">a</text>
  <text class="cls-1" transform="matrix(-0.51, 0.86, -0.86, -0.51, 430.59, 345.06)">r</text>
  <text class="cls-1" transform="matrix(-0.58, 0.82, -0.82, -0.58, 423.63, 357.12)">k</text>
  <text class="cls-1" transform="translate(411.82 373.6) rotate(129.1)">l</text>
  <text class="cls-1" transform="matrix(-0.68, 0.73, -0.73, -0.68, 405.98, 381.1)">e</text>
  <text class="cls-1" transform="matrix(-0.73, 0.69, -0.69, -0.73, 392, 395.77)"> </text>
  <text class="cls-1" transform="matrix(-0.76, 0.65, -0.65, -0.76, 387.15, 400.54)">•</text>
  <text class="cls-1" transform="translate(374.5 411.09) rotate(142.85)"> </text>
  <text class="cls-1" transform="matrix(-0.84, 0.54, -0.54, -0.84, 369.37, 415.42)">C</text>
  <text class="cls-1" transform="translate(348.44 428.91) rotate(153.37)">u</text>
  <text class="cls-1" transform="matrix(-0.93, 0.37, -0.37, -0.93, 328.63, 438.67)">r</text>
  <text class="cls-1" transform="matrix(-0.95, 0.32, -0.32, -0.95, 315.58, 443.83)">i</text>
  <text class="cls-1" transform="translate(306.66 447.07) rotate(165.49)">o</text>
  <text class="cls-1" transform="translate(286.5 452.25) rotate(170.73)">s</text>
  <text class="cls-1" transform="matrix(-1, 0.1, -0.1, -1, 268.4, 455.07)">i</text>
  <text class="cls-1" transform="translate(258.86 456.05) rotate(177.49)">t</text>
  <text class="cls-1" transform="translate(245.72 456.79) rotate(-178.05)">y</text>
  <text class="cls-1" transform="translate(224.94 455.87) rotate(-174.4)"> </text>
  <text class="cls-1" transform="translate(218.17 455.35) rotate(-171.29)">•</text>
  <text class="cls-1" transform="translate(201.92 452.73) rotate(-168.17)"> </text>
  <text class="cls-1" transform="translate(195.28 451.67) rotate(-164.03)">D</text>
  <text class="cls-1" transform="translate(172.45 445.07) rotate(-158.13)">e</text>
  <text class="cls-1" transform="translate(153.78 437.56) rotate(-152.98)">s</text>
  <text class="cls-1" transform="translate(137.53 429.12) rotate(-149.25)">i</text>
  <text class="cls-1" transform="translate(129.27 424.5) rotate(-145)">g</text>
  <text class="cls-1" transform="matrix(-0.76, -0.65, 0.65, -0.76, 111.09, 411.8)">n</text>
  <text class="cls-1" transform="matrix(-0.71, -0.7, 0.7, -0.71, 94.47, 397.08)"> </text>
  <text class="cls-1" transform="matrix(-0.67, -0.74, 0.74, -0.67, 89.54, 392.4)">•</text>
  <text class="cls-1" transform="matrix(-0.63, -0.78, 0.78, -0.63, 78.58, 380.12)"> </text>
  <text class="cls-1" transform="translate(74.14 375.02) rotate(-125.44)">P</text>
  <text class="cls-1" transform="translate(62.38 358.29) rotate(-120.85)">r</text>
  <text class="cls-1" transform="translate(55.13 346.47) rotate(-116.2)">o</text>
  <text class="cls-1" transform="translate(45.9 327.87) rotate(-110.42)">g</text>
  <text class="cls-1" transform="translate(38.28 306.93) rotate(-105.54)">r</text>
  <text class="cls-1" transform="translate(34.37 293.63) rotate(-100.68)">a</text>
  <text class="cls-1" transform="translate(29.83 272.05) rotate(-93.11)">m</text>
  <text class="cls-1" transform="translate(27.88 237.47) rotate(-83.98)">m</text>
  <text class="cls-1" transform="translate(32.17 202.87) rotate(-78.05)">i</text>
  <text class="cls-1" transform="translate(33.88 193.56) rotate(-73.79)">n</text>
  <text class="cls-1" transform="translate(39.99 172.42) rotate(-67.84)">g</text>
  <text class="cls-1" transform="translate(48.64 151.84) rotate(-63.93)"> </text>
  <text class="cls-1" transform="matrix(0.49, -0.87, 0.87, 0.49, 51.51, 145.66)">•</text>
  <text class="cls-1" transform="translate(59.65 131.33) rotate(-57.69)"> </text>
  <text class="cls-1" transform="translate(63.06 125.52) rotate(-54.05)">P</text>
  <text class="cls-1" transform="matrix(0.66, -0.75, 0.75, 0.66, 74.95, 109)">u</text>
  <text class="cls-1" transform="matrix(0.74, -0.68, 0.68, 0.74, 89.54, 92.51)">b</text>
  <text class="cls-1" transform="matrix(0.78, -0.62, 0.62, 0.78, 106.13, 77.6)">l</text>
  <text class="cls-1" transform="translate(113.68 71.62) rotate(-35.74)">i</text>
  <text class="cls-1" transform="translate(121.31 65.94) rotate(-32.02)">s</text>
  <text class="cls-1" transform="matrix(0.89, -0.45, 0.45, 0.89, 136.66, 56.2)">h</text>
  <text class="cls-1" transform="translate(156.55 46.48) rotate(-22.38)">i</text>
  <text class="cls-1" transform="translate(165.21 42.64) rotate(-18.12)">n</text>
  <text class="cls-1" transform="translate(186.11 35.76) rotate(-12.17)">g</text>
  <text class="cls-1" transform="translate(207.99 31.3) rotate(-8.27)"> </text>
  <text class="cls-1" transform="matrix(1, -0.09, 0.09, 1, 214.7, 30.19)">•</text>
  <text class="cls-1" transform="matrix(1, -0.04, 0.04, 1, 231.12, 28.83)"> </text>
</svg>
